<?xml version="1.0" encoding="UTF-8"?>
<svg version="1.1" xmlns="http://www.w3.org/2000/svg" width="1080" height="1016">
<path d="M0 0 C1.22164543 -0.00205263 2.44329086 -0.00410527 3.70195585 -0.0062201 C7.09103378 -0.0108981 10.4800586 -0.01111805 13.86913581 -0.00944251 C17.55717034 -0.00870976 21.24519782 -0.01373826 24.93322933 -0.01801753 C32.24738971 -0.02558934 39.56154279 -0.02779018 46.87570669 -0.02834659 C55.63738555 -0.02926106 64.39905767 -0.03593117 73.16073363 -0.04269341 C94.33907565 -0.0587487 115.51741696 -0.06465654 136.69576398 -0.06944216 C146.7186242 -0.07177897 156.74148386 -0.07538176 166.76434364 -0.07913754 C201.08617613 -0.09197376 235.4080083 -0.10269199 269.72984314 -0.10614014 C271.88418656 -0.10636177 274.03852999 -0.10658355 276.19287341 -0.10680549 C278.35237598 -0.10702613 280.51187855 -0.10724661 282.67138112 -0.10746694 C287.0035967 -0.10790948 291.33581229 -0.1083566 295.66802788 -0.10880661 C296.74216451 -0.108916 297.81630115 -0.10902539 298.92298738 -0.1091381 C333.73406385 -0.11276689 368.54511947 -0.12867984 403.35618796 -0.15199697 C440.17577673 -0.17661426 476.99535359 -0.1903139 513.81495082 -0.19150805 C517.86001007 -0.1916795 521.90506931 -0.19189493 525.95012856 -0.19214249 C527.44409756 -0.19222614 527.44409756 -0.19222614 528.96824776 -0.19231148 C544.97147997 -0.1934604 560.97469073 -0.20446901 576.9779157 -0.21902954 C593.0769491 -0.23342345 609.17595512 -0.23661525 625.2749932 -0.22858956 C634.8285606 -0.22414663 644.38203938 -0.22794014 653.93559507 -0.24382807 C660.33152991 -0.25362758 666.72740312 -0.25235275 673.12333749 -0.24239184 C676.75826803 -0.23703532 680.39302925 -0.23617316 684.02794529 -0.24890056 C741.75424581 -0.43823348 792.32269171 17.02940595 833.92632866 57.94392776 C843.94114843 68.02758918 852.09886213 79.55516334 859.748106 91.49031448 C860.64628643 92.88984365 861.56010318 94.27931742 862.47710991 95.66658401 C872.77301679 111.84586626 879.41359617 131.00931827 883.55132866 149.63142776 C883.75008598 150.51983353 883.94884331 151.40823929 884.15362358 152.32356644 C887.83721511 169.8762827 888.0903364 187.14774104 888.06202507 205.00793839 C888.06394523 207.72105335 888.06886002 210.43416114 888.07361764 213.14727241 C888.08233404 219.02314507 888.0837081 224.89898287 888.08011436 230.77486038 C888.07478423 239.51308348 888.0809258 248.25127311 888.0891973 256.98949258 C888.10440457 273.50777906 888.10614573 290.02605016 888.10367427 306.54434218 C888.10183864 319.30404797 888.10360687 332.06374874 888.10789871 344.8234539 C888.10850112 346.65934528 888.10910232 348.49523666 888.10970232 350.33112803 C888.11060961 353.09795347 888.11151828 355.86477891 888.11243467 358.63160434 C888.12085935 384.3428809 888.12520326 410.05415557 888.12102795 435.76543331 C888.12087157 436.73387829 888.12071519 437.70232326 888.12055408 438.70011505 C888.11974835 443.60810525 888.11890258 448.51609545 888.11804078 453.42408564 C888.11786969 454.39875382 888.1176986 455.373422 888.11752233 456.37762558 C888.11717567 458.34863959 888.11682714 460.31965359 888.11647674 462.29066759 C888.11112071 492.95301244 888.1190486 523.61532852 888.1375103 554.277668 C888.15824881 588.7615131 888.16894947 623.24534039 888.16493481 657.72919208 C888.16453949 661.40956898 888.16417794 665.08994589 888.16383743 668.7703228 C888.16370134 670.12953161 888.16370134 670.12953161 888.16356249 671.51619917 C888.1623989 685.16615988 888.16902666 698.81610253 888.17964935 712.46605873 C888.19172567 727.99933364 888.19323237 743.53256891 888.18085919 759.06584444 C888.17425322 767.7462972 888.1758091 776.42665503 888.1894477 785.10710011 C888.1977404 790.92072641 888.19493266 796.7342822 888.18347243 802.54790287 C888.17726324 805.85012971 888.17718574 809.15202355 888.18733577 812.45426222 C888.28788509 847.63099472 882.76654291 880.98056418 865.80132866 912.13142776 C865.48051323 912.73148636 865.1596978 913.33154495 864.82916069 913.94978714 C848.68332393 944.02745561 825.02167656 967.76176047 796.44244194 986.07820511 C795.04291278 986.97638553 793.653439 987.89020228 792.26617241 988.80720901 C776.08689017 999.1031159 756.92343815 1005.74369528 738.30132866 1009.88142776 C737.4129229 1010.08018509 736.52451714 1010.27894241 735.60918999 1010.48372269 C717.97202783 1014.18503593 700.59257947 1014.42420272 682.64325954 1014.38836287 C678.95506818 1014.38324098 675.26689326 1014.3898283 671.5787043 1014.39484954 C665.12892955 1014.40204057 658.67918833 1014.40187379 652.22941208 1014.39675522 C642.63802444 1014.38916428 633.04666489 1014.39307119 623.45527741 1014.39917183 C606.32095442 1014.40968512 589.18664636 1014.40879776 572.05232196 1014.40301401 C557.05690704 1014.39797728 542.06149759 1014.39667211 527.066082 1014.3990593 C526.07030679 1014.39921207 525.07453158 1014.39936484 524.04858137 1014.39952224 C520.00610703 1014.40014494 515.9636327 1014.40078175 511.92115837 1014.40144176 C474.02040004 1014.40755605 436.11965121 1014.40201882 398.21889434 1014.39124797 C364.56920264 1014.38175791 330.91952608 1014.38260584 297.26983452 1014.39216995 C259.4386495 1014.40288669 221.60747287 1014.40712164 183.77628654 1014.40094543 C179.74098806 1014.40030402 175.70568957 1014.39967834 171.67039108 1014.3990593 C170.67684371 1014.39890114 169.68329633 1014.39874299 168.65964146 1014.39858004 C153.67679887 1014.39630811 138.69396235 1014.39896004 123.71112061 1014.4040184 C106.66881048 1014.40974348 89.62651761 1014.40829329 72.58420963 1014.39745691 C63.05421535 1014.39159662 53.52425843 1014.39118321 43.99426514 1014.39874926 C37.61946357 1014.40325082 31.2446918 1014.40041271 24.86989463 1014.39173973 C21.24394276 1014.38700641 17.61806485 1014.38530443 13.99211545 1014.39255169 C-4.95530711 1014.42760461 -23.24013585 1014.06230773 -41.69867134 1009.38142776 C-42.7540107 1009.11974808 -43.80935005 1008.85806839 -44.89666939 1008.58845901 C-58.65223589 1005.10080913 -71.72272362 1000.99762311 -84.19867134 994.13142776 C-85.70107368 993.31931839 -85.70107368 993.31931839 -87.23382759 992.49080276 C-89.10106752 991.47722852 -90.96487476 990.45727944 -92.82367134 989.42830276 C-94.92751709 988.27949226 -97.04702775 987.18732694 -99.19867134 986.13142776 C-99.19867134 985.47142776 -99.19867134 984.81142776 -99.19867134 984.13142776 C-99.81742134 983.98705276 -100.43617134 983.84267776 -101.07367134 983.69392776 C-103.19867134 983.13142776 -103.19867134 983.13142776 -105.19867134 982.13142776 C-105.19867134 981.47142776 -105.19867134 980.81142776 -105.19867134 980.13142776 C-105.81742134 979.98705276 -106.43617134 979.84267776 -107.07367134 979.69392776 C-109.19867134 979.13142776 -109.19867134 979.13142776 -111.19867134 978.13142776 C-111.19867134 977.47142776 -111.19867134 976.81142776 -111.19867134 976.13142776 C-111.92054634 975.88392776 -112.64242134 975.63642776 -113.38617134 975.38142776 C-116.47473716 974.00873185 -118.70878552 972.4078948 -121.19867134 970.13142776 C-121.19867134 969.47142776 -121.19867134 968.81142776 -121.19867134 968.13142776 C-121.85867134 968.13142776 -122.51867134 968.13142776 -123.19867134 968.13142776 C-123.19867134 967.47142776 -123.19867134 966.81142776 -123.19867134 966.13142776 C-123.78745064 966.02943069 -124.37622993 965.92743362 -124.98285103 965.82234573 C-127.57985448 965.01257053 -128.73166184 963.98538678 -130.65179634 962.07674026 C-131.57992134 961.15441605 -131.57992134 961.15441605 -132.52679634 960.21345901 C-133.16101509 959.5676387 -133.79523384 958.92181839 -134.44867134 958.25642776 C-135.42320259 957.29929886 -135.42320259 957.29929886 -136.41742134 956.32283401 C-137.33781197 955.39664261 -137.33781197 955.39664261 -138.27679634 954.45174026 C-138.83786079 953.88729202 -139.39892525 953.32284378 -139.97699165 952.74129105 C-141.19867134 951.13142776 -141.19867134 951.13142776 -141.19867134 948.13142776 C-141.85867134 948.13142776 -142.51867134 948.13142776 -143.19867134 948.13142776 C-143.19867134 947.47142776 -143.19867134 946.81142776 -143.19867134 946.13142776 C-143.85867134 946.13142776 -144.51867134 946.13142776 -145.19867134 946.13142776 C-145.19867134 945.47142776 -145.19867134 944.81142776 -145.19867134 944.13142776 C-145.85867134 944.13142776 -146.51867134 944.13142776 -147.19867134 944.13142776 C-151.19867134 939.77848659 -151.19867134 939.77848659 -151.19867134 936.13142776 C-151.85867134 936.13142776 -152.51867134 936.13142776 -153.19867134 936.13142776 C-155.19867134 933.13142776 -155.19867134 933.13142776 -155.19867134 930.13142776 C-155.85867134 930.13142776 -156.51867134 930.13142776 -157.19867134 930.13142776 C-159.19867134 927.13142776 -159.19867134 927.13142776 -159.19867134 924.13142776 C-159.85867134 924.13142776 -160.51867134 924.13142776 -161.19867134 924.13142776 C-163.19867134 921.13142776 -163.19867134 921.13142776 -163.19867134 918.13142776 C-163.85867134 918.13142776 -164.51867134 918.13142776 -165.19867134 918.13142776 C-165.19867134 916.81142776 -165.19867134 915.49142776 -165.19867134 914.13142776 C-165.85867134 914.13142776 -166.51867134 914.13142776 -167.19867134 914.13142776 C-167.19867134 912.81142776 -167.19867134 911.49142776 -167.19867134 910.13142776 C-167.85867134 910.13142776 -168.51867134 910.13142776 -169.19867134 910.13142776 C-169.19867134 908.81142776 -169.19867134 907.49142776 -169.19867134 906.13142776 C-169.85867134 906.13142776 -170.51867134 906.13142776 -171.19867134 906.13142776 C-171.19867134 904.81142776 -171.19867134 903.49142776 -171.19867134 902.13142776 C-171.85867134 902.13142776 -172.51867134 902.13142776 -173.19867134 902.13142776 C-173.40363228 901.56552933 -173.60859322 900.99963089 -173.81976509 900.41658401 C-174.08917915 899.68310745 -174.35859322 898.94963089 -174.63617134 898.19392776 C-174.90300728 897.46302933 -175.16984322 896.73213089 -175.44476509 895.97908401 C-176.05254082 894.14837098 -176.05254082 894.14837098 -177.19867134 893.13142776 C-177.23930966 891.46525661 -177.24139234 889.79754682 -177.19867134 888.13142776 C-177.85867134 888.13142776 -178.51867134 888.13142776 -179.19867134 888.13142776 C-179.19867134 886.15142776 -179.19867134 884.17142776 -179.19867134 882.13142776 C-179.85867134 882.13142776 -180.51867134 882.13142776 -181.19867134 882.13142776 C-181.19867134 880.15142776 -181.19867134 878.17142776 -181.19867134 876.13142776 C-181.85867134 876.13142776 -182.51867134 876.13142776 -183.19867134 876.13142776 C-183.42653592 874.08064651 -183.65440051 872.02986526 -183.88226509 869.97908401 C-184.01753748 868.12002548 -184.01753748 868.12002548 -185.19867134 867.13142776 C-185.51964885 864.81325688 -185.7108809 862.49363419 -185.91742134 860.16267776 C-185.98932972 858.13962183 -185.98932972 858.13962183 -187.19867134 857.13142776 C-187.2712608 854.94503323 -187.28240917 852.75642388 -187.26117134 850.56892776 C-187.2521479 849.3713887 -187.24312447 848.17384964 -187.23382759 846.94002151 C-187.21642525 845.54976761 -187.21642525 845.54976761 -187.19867134 844.13142776 C-187.85867134 844.13142776 -188.51867134 844.13142776 -189.19867134 844.13142776 C-190.53948992 830.72354736 -190.3443042 817.29529638 -190.33911324 803.83673477 C-190.34169967 801.15024732 -190.34467525 798.46376281 -190.34811664 795.77727658 C-190.35565674 789.18604132 -190.35788765 782.59481417 -190.35844569 776.00357504 C-190.35936328 768.1023651 -190.36604238 760.20116257 -190.37279252 752.29995584 C-190.38881294 733.2102198 -190.39475093 714.1204846 -190.39954126 695.03074305 C-190.40188081 685.99341959 -190.40548381 676.95609676 -190.40923664 667.91877379 C-190.42206756 636.95882087 -190.43278798 605.9988683 -190.43623924 575.03891277 C-190.43646087 573.0973895 -190.43668266 571.15586623 -190.43690459 569.21434296 C-190.43712523 567.26825402 -190.43734571 565.32216509 -190.43756604 563.37607616 C-190.43800858 559.47217969 -190.4384557 555.56828322 -190.43890572 551.66438675 C-190.43901511 550.69645566 -190.4391245 549.72852457 -190.4392372 548.73126224 C-190.44286757 517.3484199 -190.45878922 485.96560066 -190.48209608 454.58276717 C-190.50671599 421.37097292 -190.52041304 388.15919187 -190.52160716 354.94738823 C-190.5217786 351.29871849 -190.52199403 347.65004875 -190.52224159 344.00137901 C-190.52229736 343.10303179 -190.52235313 342.20468456 -190.52241059 341.27911469 C-190.52355901 326.85115102 -190.53456299 312.42321116 -190.54912865 297.99525552 C-190.5635255 283.48318463 -190.56671262 268.97114412 -190.55868867 254.45906805 C-190.55424777 245.84951458 -190.55803111 237.24005948 -190.57392718 228.63051902 C-190.58373333 222.86532662 -190.58244566 217.10020254 -190.57249095 211.33501065 C-190.56713926 208.05960225 -190.56795342 204.78441694 -190.57899967 201.50901752 C-190.62656839 186.44143707 -189.87304862 171.97196285 -187.19867134 157.13142776 C-187.04924502 156.28777095 -186.8998187 155.44411414 -186.7458643 154.57489198 C-180.97139141 122.30482786 -165.79064537 91.7517843 -144.19867134 67.13142776 C-143.09072212 65.85912308 -143.09072212 65.85912308 -141.96039009 64.56111526 C-139.7391212 62.05211724 -137.48264696 59.58340159 -135.19867134 57.13142776 C-134.51417915 56.39279495 -133.82968697 55.65416214 -133.12445259 54.89314651 C-103.40436022 23.96447368 -62.13020982 6.65320477 -20.19867134 1.13142776 C-18.52333893 0.87841648 -18.52333893 0.87841648 -16.81416142 0.62029386 C-11.21727542 -0.07215413 -5.63199499 -0.00881111 0 0 Z M2.80132866 261.13142776 C3.80132866 263.13142776 3.80132866 263.13142776 3.80132866 263.13142776 Z M0.80132866 271.13142776 C1.80132866 273.13142776 1.80132866 273.13142776 1.80132866 273.13142776 Z M382.80132866 540.13142776 C383.80132866 542.13142776 383.80132866 542.13142776 383.80132866 542.13142776 Z M450.80132866 540.13142776 C451.80132866 542.13142776 451.80132866 542.13142776 451.80132866 542.13142776 Z M380.80132866 550.13142776 C381.80132866 552.13142776 381.80132866 552.13142776 381.80132866 552.13142776 Z M444.80132866 557.13142776 C445.80132866 559.13142776 445.80132866 559.13142776 445.80132866 559.13142776 Z M443.80132866 566.13142776 C443.80132866 569.43142776 443.80132866 572.73142776 443.80132866 576.13142776 C444.13132866 576.13142776 444.46132866 576.13142776 444.80132866 576.13142776 C444.80132866 572.83142776 444.80132866 569.53142776 444.80132866 566.13142776 C444.47132866 566.13142776 444.14132866 566.13142776 443.80132866 566.13142776 Z M379.80132866 575.13142776 C380.80132866 578.13142776 380.80132866 578.13142776 380.80132866 578.13142776 Z M444.80132866 581.13142776 C445.80132866 583.13142776 445.80132866 583.13142776 445.80132866 583.13142776 Z " fill="#01C57E" transform="translate(191.19867134094238,0.8685722351074219)"/>
<path d="M0 0 C1.95339982 -0.0048946 3.90679674 -0.01108703 5.86018878 -0.01845789 C11.20464601 -0.03480843 16.54895524 -0.03254942 21.89342868 -0.02708292 C27.66662127 -0.02440668 33.43977494 -0.03895573 39.21295166 -0.05117798 C50.51482109 -0.0722095 61.8166392 -0.07677411 73.11852589 -0.07499009 C82.30812731 -0.07368124 91.49771275 -0.07749288 100.68731117 -0.08491516 C103.33679241 -0.08701441 105.98627365 -0.08911202 108.63575488 -0.09120798 C109.95458346 -0.09225151 111.27341203 -0.09329504 112.63220511 -0.09437019 C130.48380841 -0.10813361 148.33540622 -0.11549882 166.18701458 -0.11104584 C166.88456944 -0.11087388 167.5821243 -0.11070193 168.30081718 -0.11052476 C171.83595627 -0.10963593 175.37109534 -0.10869112 178.90623441 -0.10772675 C179.60826937 -0.10753572 180.31030434 -0.10734469 181.0336131 -0.10714786 C182.45329764 -0.10676077 183.87298218 -0.10637044 185.29266672 -0.10597689 C207.37466346 -0.10000912 229.45655534 -0.11543844 251.53852844 -0.14758301 C276.37349426 -0.18370481 301.20839303 -0.20294276 326.04338676 -0.1980443 C339.18329031 -0.19580225 352.32308993 -0.20100406 365.46297264 -0.22593689 C376.65056113 -0.24698501 387.83798871 -0.25050713 399.02558389 -0.2316373 C404.72900657 -0.222501 410.43212951 -0.22127202 416.13552856 -0.24199295 C421.36603921 -0.26078496 426.59600633 -0.25610746 431.82649682 -0.23344713 C433.70933611 -0.22928209 435.59221775 -0.23339003 437.47501215 -0.24704307 C449.73217611 -0.329807 460.11712281 1.2739004 471.6764679 5.39440918 C472.54554093 5.70175948 473.41461396 6.00910977 474.31002253 6.32577372 C496.45803871 14.67744789 515.39518536 32.2407071 525.72676086 53.56188965 C532.20199934 67.91402839 534.85697956 80.796436 534.77412415 96.55456543 C534.7727092 97.58504501 534.77129425 98.6155246 534.76983643 99.67723083 C534.76428237 102.93715437 534.7517386 106.19700675 534.7389679 109.45690918 C534.73394695 111.68021547 534.72938509 113.90352285 534.72529602 116.12683105 C534.71432803 121.54938098 534.6976363 126.97188999 534.6764679 132.39440918 C535.59933594 132.69559662 535.59933594 132.69559662 536.54084778 133.00286865 C537.34937195 133.26903992 538.15789612 133.53521118 538.99092102 133.80944824 C539.79179138 134.07211487 540.59266174 134.33478149 541.4178009 134.60540771 C549.77639846 137.52524749 556.98006684 142.72106939 563.6764679 148.39440918 C564.5014679 149.08534668 565.3264679 149.77628418 566.1764679 150.48815918 C583.52541124 165.50980525 596.05936056 187.6516235 597.95612037 210.80860364 C598.06260908 214.46950979 598.08138915 218.119855 598.06414795 221.78227234 C598.06833121 223.18722482 598.07381413 224.59217391 598.08046776 225.99711686 C598.09481158 229.82099961 598.09071265 233.64466481 598.08330095 237.46855891 C598.07854378 241.6071111 598.09110167 245.74561793 598.10131836 249.88415527 C598.11846334 257.97843933 598.11935515 266.07264561 598.11410546 274.1669431 C598.11005368 280.75163147 598.11151926 287.33629697 598.11685371 293.92098427 C598.11760214 294.86042407 598.11835056 295.79986387 598.11912166 296.76777155 C598.12065325 298.67666545 598.12219159 300.58555934 598.12373663 302.49445323 C598.13744668 320.37331285 598.13203501 338.25212865 598.12055141 356.13098726 C598.1106256 372.45572336 598.1235511 388.780346 598.14748561 405.10506459 C598.17192213 421.89981914 598.181473 438.69452096 598.17483288 455.48929292 C598.17135012 464.90516446 598.17350989 474.32094885 598.19108391 483.73680687 C598.20586316 491.75423991 598.20636727 499.77152446 598.189013 507.78895476 C598.18054653 511.87228029 598.17824546 515.95534123 598.19366455 520.03865242 C598.30343293 551.37939789 594.43806875 579.4300594 571.96943665 603.09753418 C571.21275696 603.85550293 570.45607727 604.61347168 569.6764679 605.39440918 C568.93010071 606.15237793 568.18373352 606.91034668 567.41474915 607.69128418 C556.3430051 618.30551814 543.17090044 624.77920459 528.6764679 629.39440918 C528.00172147 629.64801604 527.32697504 629.9016229 526.63178176 630.16291481 C516.73656937 633.46217245 506.44956625 632.81378202 496.15066528 632.78208923 C493.94580381 632.78626479 491.74094448 632.79174353 489.53608912 632.79840904 C483.49194684 632.81285342 477.44794103 632.80862197 471.40379131 632.80124223 C465.54997306 632.79699667 459.69618909 632.80682489 453.84237922 632.81614985 C441.13309891 632.83579647 428.42385943 632.83816792 415.71456756 632.83295465 C404.58919313 632.82839351 393.46383484 632.82900158 382.33846092 632.834795 C380.84481617 632.83555187 379.35117141 632.83630785 377.85752666 632.83706294 C375.60658072 632.83820817 373.35563479 632.83935805 371.10468886 632.84052219 C350.18179243 632.85122454 329.25890137 632.8559553 308.3360033 632.84805202 C307.15340245 632.84760626 307.15340245 632.84760626 305.94691067 632.8471515 C299.5450045 632.84470269 293.14309839 632.84209104 286.74119229 632.83946737 C261.77940638 632.82936867 236.81768777 632.83771425 211.85591125 632.86096191 C183.79297857 632.88705566 155.7300864 632.89987656 127.66714114 632.89277416 C124.672612 632.89205814 121.67808285 632.89138375 118.6835537 632.89073372 C117.94625846 632.89056391 117.20896323 632.8903941 116.44932571 632.89021915 C105.33678497 632.88791958 94.22428193 632.89587691 83.11174965 632.90902519 C70.46680526 632.92396019 57.821949 632.92474805 45.17700646 632.90695428 C38.72846538 632.89844637 32.28009241 632.89628987 25.83156013 632.91160583 C19.92141787 632.92546894 14.01158747 632.92066844 8.10146316 632.9013666 C5.97029753 632.89761127 3.83910682 632.90051493 1.70796356 632.91097825 C-25.48237348 633.03491827 -50.31385632 625.21268455 -70.1985321 606.01940918 C-87.97864146 587.18566372 -98.51167978 564.32849867 -98.45775318 538.21105289 C-98.46010541 537.42350989 -98.46245764 536.63596689 -98.46488115 535.82455894 C-98.47152217 533.19353647 -98.47111442 530.56256393 -98.47070312 527.93153381 C-98.4740048 526.02283702 -98.477731 524.11414092 -98.4818446 522.20544571 C-98.49183807 516.96600964 -98.49557711 511.72658502 -98.49823391 506.48714077 C-98.5021448 500.83386509 -98.51172252 495.18059841 -98.52044678 489.52732849 C-98.54018801 475.87825747 -98.55027397 462.22918574 -98.55917457 448.58010402 C-98.5635609 442.14836717 -98.56892678 435.71663115 -98.57416344 429.28489494 C-98.59117261 407.89789881 -98.60569121 386.51090398 -98.61291218 365.12390232 C-98.61338693 363.74166586 -98.61386282 362.3594294 -98.61433984 360.97719293 C-98.6146944 359.94903756 -98.6146944 359.94903756 -98.61505613 358.90011137 C-98.61625728 355.42758889 -98.61747275 351.95506642 -98.61869812 348.48254395 C-98.61905835 347.44886242 -98.61905835 347.44886242 -98.61942585 346.39429844 C-98.62731515 324.06172406 -98.65074095 301.72920284 -98.68325406 279.39665166 C-98.71759634 255.76437733 -98.73726624 232.13214354 -98.74055642 208.49984211 C-98.74271941 195.62592966 -98.75143747 182.7520954 -98.77701759 169.87820625 C-98.79875373 158.91379277 -98.8067606 147.94947647 -98.79705081 136.98504389 C-98.79251474 131.39509572 -98.79435219 125.80534792 -98.81381226 120.2154274 C-98.83150587 115.08845484 -98.83039606 109.96182793 -98.81491496 104.83485138 C-98.8125483 102.98957395 -98.81681299 101.14427218 -98.82874361 99.2990318 C-98.99608452 71.68564775 -90.22674557 47.67171395 -70.70683289 27.78601074 C-59.37703591 16.38822699 -46.63276258 8.31451469 -31.3235321 3.39440918 C-30.16726131 3.01241655 -30.16726131 3.01241655 -28.9876315 2.62270689 C-19.34375665 -0.17983209 -9.94701467 -0.03095089 0 0 Z M283.6764679 349.39440918 C284.6764679 351.39440918 284.6764679 351.39440918 284.6764679 351.39440918 Z M351.6764679 349.39440918 C352.6764679 351.39440918 352.6764679 351.39440918 352.6764679 351.39440918 Z M281.6764679 359.39440918 C282.6764679 361.39440918 282.6764679 361.39440918 282.6764679 361.39440918 Z M345.6764679 366.39440918 C346.6764679 368.39440918 346.6764679 368.39440918 346.6764679 368.39440918 Z M344.6764679 375.39440918 C344.6764679 378.69440918 344.6764679 381.99440918 344.6764679 385.39440918 C345.0064679 385.39440918 345.3364679 385.39440918 345.6764679 385.39440918 C345.6764679 382.09440918 345.6764679 378.79440918 345.6764679 375.39440918 C345.3464679 375.39440918 345.0164679 375.39440918 344.6764679 375.39440918 Z M280.6764679 384.39440918 C281.6764679 387.39440918 281.6764679 387.39440918 281.6764679 387.39440918 Z M345.6764679 390.39440918 C346.6764679 392.39440918 346.6764679 392.39440918 346.6764679 392.39440918 Z " fill="#FEFEFE" transform="translate(290.3235321044922,191.6055908203125)"/>
<path d="M0 0 C51.61267405 -0.06847825 103.2253515 -0.1321601 154.83805847 -0.16937256 C155.60202733 -0.16992479 156.36599619 -0.17047702 157.15311562 -0.17104598 C173.75649456 -0.1830178 190.35987399 -0.1940985 206.96325414 -0.20426132 C215.10562982 -0.20925063 223.24800537 -0.21443685 231.39038086 -0.21972656 C232.20064209 -0.2202496 233.01090332 -0.22077263 233.84571793 -0.22131152 C260.10533131 -0.23835479 286.36491024 -0.26839845 312.62450276 -0.30518888 C339.61121208 -0.34292933 366.59790235 -0.36754411 393.58463762 -0.37565996 C397.396932 -0.37681257 401.20922632 -0.37811511 405.02152061 -0.37950897 C405.77182967 -0.37977866 406.52213873 -0.38004836 407.29518443 -0.38032622 C419.36971237 -0.38505181 431.44418135 -0.40360059 443.51868525 -0.42732814 C455.65969611 -0.45089104 467.80064856 -0.45986843 479.94168148 -0.45400551 C486.51914022 -0.45123232 493.09645975 -0.45540657 499.67389107 -0.4768219 C505.69645161 -0.49628755 511.71872287 -0.49726954 517.74129673 -0.48359558 C519.919142 -0.48190556 522.09700532 -0.48697934 524.27481506 -0.49953273 C539.10725757 -0.58005345 550.61972274 -0.26155135 561.83203125 10.55859375 C568.71434275 18.30894454 570.16460399 25.41884112 570.09765625 35.58203125 C570.0962413 36.39621017 570.09482635 37.2103891 570.09336853 38.04924011 C570.08779317 40.63703156 570.07524524 43.22473492 570.0625 45.8125 C570.05748181 47.57226437 570.05291946 49.33203011 570.04882812 51.09179688 C570.03783181 55.39456494 570.02058421 59.69726756 570 64 C568.93682226 64.00081715 568.93682226 64.00081715 567.85216618 64.00165081 C550.48523585 64.0167168 533.11858681 64.05955508 515.75180149 64.13209057 C507.35281627 64.166523 498.95399146 64.19206718 490.55493164 64.19555664 C483.22145245 64.19862719 475.88826053 64.21952506 468.554892 64.26052457 C464.6835028 64.28158078 460.81251902 64.29460007 456.94107246 64.28615379 C425.68449356 64.17525488 425.68449356 64.17525488 396 73 C395.28561768 73.30760254 394.57123535 73.61520508 393.83520508 73.93212891 C384.86418141 77.85732872 376.9384196 82.02911055 369.3203125 88.21484375 C367 90 367 90 364 91 C362.64175118 92.30794331 361.31543863 93.64900897 360 95 C358.73200762 96.0658888 357.46084823 97.12801527 356.1875 98.1875 C352.337784 101.49753619 349.39924756 105.16244351 346.4453125 109.27734375 C345.96835937 109.84582031 345.49140625 110.41429687 345 111 C344.34 111 343.68 111 343 111 C342.72414063 111.56203125 342.44828125 112.1240625 342.1640625 112.703125 C340.95631972 115.08618794 339.67823191 117.4179008 338.375 119.75 C337.92898438 120.54921875 337.48296875 121.3484375 337.0234375 122.171875 C336.68570312 122.77515625 336.34796875 123.3784375 336 124 C335.34 124 334.68 124 334 124 C333.855625 124.78375 333.71125 125.5675 333.5625 126.375 C333 129 333 129 332 131 C331.34 131 330.68 131 330 131 C329.896875 131.886875 329.79375 132.77375 329.6875 133.6875 C328.97546061 137.11823527 327.8379749 139.05924016 326 142 C325.29618843 143.98723268 324.6288189 145.98777953 324 148 C323.69320313 148.721875 323.38640625 149.44375 323.0703125 150.1875 C317.71241726 164.26664077 313.12132883 186.36398649 318 201 C318.10411463 202.47784932 318.18369476 203.95747227 318.25 205.4375 C321.10469261 238.1367063 339.12777519 266.36152251 363 288 C387.90830331 308.61376825 418.93938162 316.05367252 450.57128906 316.20532227 C451.87026627 316.21522186 453.16924347 316.22512146 454.50758362 316.23532104 C458.02946915 316.26205975 461.55136765 316.28323471 465.07329655 316.30332303 C468.76883799 316.32537702 472.46434088 316.35266958 476.15985107 316.37937927 C483.13991738 316.42904638 490.12000537 316.47408019 497.10011363 316.51740164 C505.05431684 316.56699789 513.00848132 316.62183208 520.96264696 316.67708123 C537.3083955 316.79050175 553.65417972 316.89742576 570 317 C570.09988492 321.92547891 570.17194055 326.85035096 570.21972656 331.77661133 C570.239675 333.44761442 570.26684401 335.11854924 570.30175781 336.78930664 C570.56784274 349.86268505 569.74872889 360.59005994 560.984375 371.05859375 C553.27525485 378.60078414 543.38055423 380.31135169 533.00060463 380.25447559 C531.68698377 380.25928531 531.68698377 380.25928531 530.34682512 380.26419219 C527.4157708 380.27248575 524.48492115 380.26657011 521.55386353 380.26069641 C519.42981246 380.26371738 517.30576247 380.26760659 515.18171442 380.27228898 C509.34726612 380.28258466 503.51287916 380.28038314 497.67842579 380.27610838 C491.38519437 380.27364403 485.09197782 380.28265171 478.79875183 380.29014587 C466.47064276 380.30290288 454.14255932 380.30469115 441.81444527 380.30234561 C431.79517237 380.30051257 421.77590586 380.30227279 411.75663376 380.30657005 C410.3168965 380.30717245 408.87715923 380.30777365 407.43742197 380.30837366 C405.26784527 380.30928091 403.09826857 380.31018958 400.92869187 380.31110601 C380.75848932 380.31953494 360.58828917 380.32387164 340.4180851 380.31969929 C339.65779238 380.31954291 338.89749966 380.31938654 338.11416776 380.31922542 C334.26075111 380.31841964 330.40733448 380.31757387 326.55391784 380.31671212 C325.7886246 380.31654103 325.02333137 380.31636994 324.23484743 380.31619367 C322.68723901 380.31584702 321.13963059 380.31549849 319.59202218 380.31514808 C295.51022687 380.30979066 271.42846817 380.31772215 247.34667969 380.33618164 C220.28694642 380.35689956 193.22723583 380.36762478 166.16749418 380.36360615 C163.28199538 380.36321081 160.39649658 380.36284926 157.51099777 380.36250877 C156.80052151 380.36241804 156.09004524 380.36232731 155.35803939 380.36223383 C144.63490963 380.36106809 133.91180278 380.36771438 123.18867874 380.37832069 C110.99292019 380.39037134 98.7972279 380.39165492 86.60146572 380.37953053 C80.3785174 380.3736322 74.15566772 380.37256886 67.93272591 380.38453293 C62.23562318 380.39535881 56.53870186 380.39232753 50.84160773 380.37827124 C48.78111739 380.37561524 46.72061299 380.37801908 44.66013642 380.38600711 C18.60392812 380.48000647 18.60392812 380.48000647 9 371 C0.6976957 361.00334788 -0.44537478 351.18764122 -0.36076355 338.51646423 C-0.36207333 337.0526405 -0.36470293 335.58881746 -0.36853105 334.12499815 C-0.37521408 330.1204857 -0.36327361 326.11621563 -0.34819686 322.11173403 C-0.33520912 317.78669875 -0.3396279 313.4616765 -0.34190369 309.1366272 C-0.34347469 301.64914159 -0.33408356 294.16173457 -0.31719017 286.67426872 C-0.2927813 275.84873952 -0.28499297 265.02324822 -0.2812262 254.19769449 C-0.27466468 236.63283274 -0.25471163 219.06801285 -0.22631836 201.50317383 C-0.19877005 184.44328012 -0.17754024 167.3833978 -0.16479492 150.32348633 C-0.16400675 149.2714414 -0.16321858 148.21939647 -0.16240653 147.1354714 C-0.15849134 141.85753002 -0.15470023 136.57958857 -0.15097082 131.30164707 C-0.11988423 87.53440239 -0.06705657 43.76720336 0 0 Z " fill="#01C57E" transform="translate(255,381)"/>
<path d="M0 0 C0.77322631 -0.00380567 1.54645262 -0.00761134 2.34311002 -0.01153234 C4.93747892 -0.02184945 7.53162907 -0.01794172 10.1260128 -0.01409245 C12.00354996 -0.01854479 13.88108524 -0.02385882 15.75861776 -0.02996117 C20.92102641 -0.04415216 26.08337489 -0.04580425 31.24580026 -0.04536426 C36.81245118 -0.04701151 42.37907724 -0.06007634 47.94571495 -0.07155704 C60.11933051 -0.09441374 72.29292864 -0.10232843 84.46656275 -0.10738349 C92.06794717 -0.11063984 99.66932653 -0.11716196 107.27070808 -0.12438488 C128.31707207 -0.14395196 149.36343207 -0.16043673 170.4098053 -0.16326141 C171.08289086 -0.16335547 171.75597642 -0.16344954 172.44945851 -0.16354645 C175.17712858 -0.16392492 177.90479865 -0.16428892 180.63246871 -0.16464943 C182.68544166 -0.16492114 184.73841461 -0.16519782 186.79138756 -0.16547489 C187.80896032 -0.16560693 187.80896032 -0.16560693 188.84709011 -0.16574163 C210.15603737 -0.16864623 231.46489387 -0.19073493 252.77380943 -0.22699833 C276.71909693 -0.26774734 300.66431344 -0.29140057 324.60964429 -0.29172093 C337.28614577 -0.29230558 349.96253043 -0.30080316 362.63900185 -0.32971859 C373.43344734 -0.35422779 384.22773343 -0.3615184 395.02219923 -0.34647106 C400.52851875 -0.3393003 406.03452346 -0.3401672 411.54080772 -0.36288166 C416.58563655 -0.3834929 421.62990896 -0.38085091 426.6747319 -0.36000682 C428.49575414 -0.35651606 430.31681671 -0.3614043 432.13778611 -0.37571125 C443.76349695 -0.46113497 453.74521973 0.38348982 463.54871178 7.44756222 C478.67968559 23.65931988 474.17371178 39.91688888 474.17371178 63.26006222 C306.86371178 63.26006222 139.55371178 63.26006222 -32.82628822 63.26006222 C-32.82628822 18.54703794 -32.82628822 18.54703794 -22.82628822 8.26006222 C-15.71129318 2.51186155 -9.19696161 -0.04937812 0 0 Z " fill="#01C57E" transform="translate(287.8262882232666,254.7399377822876)"/>
<path d="M0 0 C1.31775421 -0.00014603 2.63550842 -0.00029205 3.99319458 -0.0004425 C7.58978659 -0.00072834 11.18634496 0.00513377 14.78292918 0.01213145 C18.54787572 0.01840064 22.3128231 0.01897161 26.07777405 0.02015686 C33.19969935 0.02325968 40.32160923 0.0314589 47.44352776 0.04150635 C57.07271019 0.05479489 66.70189687 0.06017587 76.33108616 0.06600857 C91.49165037 0.07539952 106.65218202 0.09532544 121.81274414 0.11352539 C121.81274414 41.69352539 121.81274414 83.27352539 121.81274414 126.11352539 C89.31506422 126.19413146 89.31506422 126.19413146 75.62329102 126.21118164 C66.19577847 126.22301638 56.76830185 126.23687562 47.34082031 126.2644043 C40.47268712 126.28444986 33.60458328 126.29726809 26.73642164 126.30170238 C23.10576302 126.30429102 19.47518831 126.31029821 15.84455681 126.3249855 C11.77393884 126.34131643 7.7034632 126.341498 3.6328125 126.34057617 C1.86225998 126.351362 1.86225998 126.351362 0.05593872 126.36236572 C-20.08403786 126.31342027 -35.46419937 122.11268383 -50.45288086 107.97680664 C-59.65991406 98.50358371 -65.77344227 87.29461823 -67.18725586 74.11352539 C-67.44442383 72.9649707 -67.44442383 72.9649707 -67.70678711 71.79321289 C-69.37499903 62.48920168 -68.88479532 52.8077398 -65.18725586 44.11352539 C-64.61234052 42.43021471 -64.04967077 40.74266841 -63.49975586 39.05102539 C-63.06225586 37.73852539 -62.62475586 36.42602539 -62.18725586 35.11352539 C-61.52725586 35.11352539 -60.86725586 35.11352539 -60.18725586 35.11352539 C-59.69225586 32.14352539 -59.69225586 32.14352539 -59.18725586 29.11352539 C-58.19725586 28.78352539 -57.20725586 28.45352539 -56.18725586 28.11352539 C-56.18725586 27.12352539 -56.18725586 26.13352539 -56.18725586 25.11352539 C-55.52725586 24.78352539 -54.86725586 24.45352539 -54.18725586 24.11352539 C-53.75413086 23.35040039 -53.32100586 22.58727539 -52.87475586 21.80102539 C-50.9956697 18.80840669 -49.07995697 17.11616462 -46.18725586 15.11352539 C-45.52725586 15.11352539 -44.86725586 15.11352539 -44.18725586 15.11352539 C-43.85725586 14.12352539 -43.52725586 13.13352539 -43.18725586 12.11352539 C-41.03856767 10.64958399 -38.9547521 9.36452751 -36.68725586 8.11352539 C-36.05231201 7.75830811 -35.41736816 7.40309082 -34.76318359 7.03710938 C-23.30278191 0.7665431 -12.89927459 -0.03748553 0 0 Z " fill="#01C57E" transform="translate(703.187255859375,507.886474609375)"/>
</svg>
